<svg xmlns="http://www.w3.org/2000/svg" viewBox="0 0 936.65 173.59"><defs><style>.cls-1{fill:#8cc63f;}.cls-2{fill:#9ad151;}.cls-3{fill:#81c626;}</style></defs><title>Asset 2</title><g id="Layer_2" data-name="Layer 2"><g id="Layer_1-2" data-name="Layer 1"><path class="cls-1" d="M32,162.34A50.94,50.94,0,0,1,8,139.62q-8-15.14-8-38V89.13q0-6.24.09-12.48Q.27,51.87,8.31,35.43a53.1,53.1,0,0,1,23.91-24.6Q48.11,2.67,72.06,2.66q23.5,0,39.43,8.22a53.35,53.35,0,0,1,24,24.69q8,16.49,8,41.08v28.64q0,15.88-7.07,23.41t-20.56,7.53q-15.24,0-22.77-7.16T85.55,107.4l20.93-.55q0,4.88,1.89,7.3t5.83,2.43q3.66,0,5.27-2.25t1.61-7.2V76.65q0-17.72-5.55-29.6A38.11,38.11,0,0,0,99.05,29.19q-10.92-6-27-6-16.44,0-27.35,5.93A37.74,37.74,0,0,0,28.23,46.91q-5.57,11.84-5.74,29.74Q22.4,82.8,22.4,89v12.58q0,16,5.51,26.57a35.28,35.28,0,0,0,16.52,15.89q11,5.26,27.63,5.27H99.42v20.57H72.06Q47.91,169.92,32,162.34ZM44.57,126Q37,115.76,37,95.1V79.31q0-20.65,8.68-30.89T71.79,38.19q17.43,0,26.07,10.23t8.62,31v29.65l-11.56,5.33q-1.85,10.92-8.68,16.38t-18.86,5.47Q52.14,136.23,44.57,126Zm35-17.3q2.56-4.23,2.57-12.85V78.3q0-8.44-2.57-12.62a8.57,8.57,0,0,0-7.8-4.18q-10.65,0-10.65,16.89V95.84q0,8.63,2.66,12.85a8.83,8.83,0,0,0,8,4.22A8.54,8.54,0,0,0,79.59,108.69Z"/><path class="cls-2" d="M167.83,131.36a30.12,30.12,0,0,1-11-14.09Q153.09,108,153.1,95V79.77q0-13.12,3.77-22.49a30.13,30.13,0,0,1,11-14.23,30.25,30.25,0,0,1,17.31-4.86,23.22,23.22,0,0,1,13.91,4.54,32,32,0,0,1,10.14,12.9l-1.93,21.11a18.8,18.8,0,0,0-1.65-8.26,11.72,11.72,0,0,0-4.82-5.19,15.39,15.39,0,0,0-7.66-1.79q-7.08,0-11,4.82t-3.91,13.54V95q0,8.53,3.91,13.22t11,4.68a15.71,15.71,0,0,0,7.66-1.74,11.54,11.54,0,0,0,4.82-5,17.76,17.76,0,0,0,1.65-8l1.29,21.76a25.15,25.15,0,0,1-9,12.07,24.41,24.41,0,0,1-14.41,4.27A30.18,30.18,0,0,1,167.83,131.36Zm39.43-130h25.15V134.85H207.26Z"/><path class="cls-1" d="M256.77,131.36a30.2,30.2,0,0,1-11-14.09Q242,108,242,95V79.77q0-13.12,3.76-22.49a28.55,28.55,0,0,1,28.27-19.09A23.2,23.2,0,0,1,288,42.73a32.05,32.05,0,0,1,10.15,12.9L296.2,76.74a18.8,18.8,0,0,0-1.65-8.26,11.77,11.77,0,0,0-4.82-5.19,15.43,15.43,0,0,0-7.67-1.79q-7.06,0-11,4.82t-3.9,13.54V95q0,8.53,3.9,13.22t11,4.68a15.75,15.75,0,0,0,7.67-1.74,11.59,11.59,0,0,0,4.82-5,17.76,17.76,0,0,0,1.65-8l1.28,21.76a25.13,25.13,0,0,1-9,12.07,24.44,24.44,0,0,1-14.42,4.27Q264,136.23,256.77,131.36Zm39.43-130h25.15V134.85H296.2Z"/><path class="cls-1" d="M360.81,136.23l-9.78-5a34.2,34.2,0,0,1-14.92-14.59Q331,107,331,93.54V82.8q0-14.13,4.91-24.14A34.27,34.27,0,0,1,350.2,43.42q9.42-5.23,22.72-5.23,12.49,0,21.39,6.24t13.54,18.13q4.63,11.89,4.64,28.69v6.24H347.31v-17h42.23l-.28-2.21q-1-8.26-5.18-12.76A14.55,14.55,0,0,0,372.92,61q-9.07,0-14.09,5.42t-5,15.33V93.91q0,9.74,5.46,15t15.29,5.33a29.32,29.32,0,0,0,10-1.79,30.46,30.46,0,0,0,9-5.1L410,122a54.91,54.91,0,0,1-16.71,10.51,49.89,49.89,0,0,1-18.72,3.72Z"/><path class="cls-3" d="M449.19,136.23l-9.77-5a34.2,34.2,0,0,1-14.92-14.59q-5.14-9.6-5.14-23.09V82.8q0-14.13,4.91-24.14a34.22,34.22,0,0,1,14.32-15.24q9.41-5.23,22.72-5.23,12.48,0,21.39,6.24t13.54,18.13q4.63,11.89,4.63,28.69v6.24H435.7v-17h42.22l-.27-2.21q-1-8.26-5.19-12.76A14.51,14.51,0,0,0,461.31,61q-9.09,0-14.09,5.42t-5,15.33V93.91q0,9.74,5.46,15T463,114.29a29.38,29.38,0,0,0,10-1.79,30.41,30.41,0,0,0,9-5.1L498.4,122a54.91,54.91,0,0,1-16.71,10.51A49.94,49.94,0,0,1,463,136.23Z"/><path class="cls-2" d="M510.5,39.56h25.15v134H510.5ZM543.36,132a25.15,25.15,0,0,1-9-12.07l1.29-21.76a17.76,17.76,0,0,0,1.65,8,11.54,11.54,0,0,0,4.82,5,15.72,15.72,0,0,0,7.67,1.74q7.07,0,11-4.68T564.66,95V79.86q0-8.72-3.9-13.54t-11-4.82a15.4,15.4,0,0,0-7.67,1.79,11.72,11.72,0,0,0-4.82,5.19,18.8,18.8,0,0,0-1.65,8.26l-1.93-21.11a32,32,0,0,1,10.15-12.9,23.17,23.17,0,0,1,13.9-4.54,28.55,28.55,0,0,1,28.28,19.09q3.75,9.36,3.76,22.49V95q0,13-3.76,22.26a28.7,28.7,0,0,1-28.28,19A24.41,24.41,0,0,1,543.36,132Z"/><path class="cls-1" d="M603.33,128.93q-7.56-7.31-7.57-22.17,0-14.13,8.49-21.21t25.48-7.06h23.86l1.29,19.18H629.82c-3.8,0-6.64.75-8.54,2.25s-2.85,3.78-2.85,6.84a7.63,7.63,0,0,0,3.58,6.93q3.59,2.25,10.84,2.25,10.1,0,15-2.3t4.91-7.16l1.92,13.87a13,13,0,0,1-4.72,8.72,27.59,27.59,0,0,1-10.47,5.37,48.31,48.31,0,0,1-13.26,1.79Q610.91,136.23,603.33,128.93Zm49.44-54.48q0-6.61-4.41-10.19t-12.48-3.58a33.29,33.29,0,0,0-10.56,1.74,31,31,0,0,0-9.27,4.87L600.44,52A37.52,37.52,0,0,1,615.5,41.81a57.12,57.12,0,0,1,20.74-3.62q12.5,0,21.3,4.17A30,30,0,0,1,671,54.48q4.63,8,4.63,19.14v61.23H652.77Z"/><path class="cls-3" d="M688,1.38h25.15V134.85H688Zm11.75,99.14,44.43-61H770.8l-67.65,88.68Zm22.58-14.87,20.75-12.49,32.4,61.69h-29.1Z"/><path class="cls-1" d="M818.61,68.57l4.5,3.31a13.74,13.74,0,0,1-6.93,6.19,27.81,27.81,0,0,1-11,2,31.49,31.49,0,0,1-29.65-18.59,47.28,47.28,0,0,1-4.22-20.52v-.09q0-12.95,4.59-22.12a31.58,31.58,0,0,1,13.35-14Q798.06,0,810.44,0t21.07,4.87A32,32,0,0,1,844.87,19q4.59,9.27,4.59,22.31v.09a60.42,60.42,0,0,1-1.93,14.46,140.58,140.58,0,0,1-5.42,16.75c-.3.86-.62,1.72-1,2.57s-.69,1.69-1.06,2.48l-23.86,57.19H789.61Zm2.07-16.29q3.63-4.28,3.62-12.07v-.09q0-7.53-3.62-11.62t-10.24-4.08c-4.46,0-7.91,1.37-10.32,4.13s-3.63,6.64-3.63,11.66v.09q0,7.8,3.63,12c2.41,2.82,5.86,4.23,10.32,4.23S818.26,55.12,820.68,52.28Z"/><path class="cls-2" d="M877.94,131.5a35.45,35.45,0,0,1-13.77-13.77,49.19,49.19,0,0,1-6-21.44V96.2h25.15v.09q.74,7.35,4.5,11.43a12.73,12.73,0,0,0,9.82,4.09q6.61,0,10.24-4.32t3.63-12.2V84.09q0-7.91-3.26-12.17a10.86,10.86,0,0,0-9.14-4.27,15.29,15.29,0,0,0-9.22,2.76,14.1,14.1,0,0,0-5.28,7.71H861.1V1.38h71.69V25.61H886.25V49.2A19.89,19.89,0,0,1,894,44.84a31.29,31.29,0,0,1,9.78-1.6q10.37,0,17.76,4.77a29.77,29.77,0,0,1,11.24,14q3.86,9.18,3.86,22.13v11.2q0,12.93-4.64,22.12a32,32,0,0,1-13.45,14q-8.8,4.82-21.29,4.82A39.45,39.45,0,0,1,877.94,131.5Z"/></g></g></svg>